<mxfile host="app.diagrams.net" modified="2022-06-10T04:50:56.123Z" agent="5.0 (Windows NT 10.0; Win64; x64) AppleWebKit/537.36 (KHTML, like Gecko) Chrome/100.0.4896.127 Safari/537.36" etag="8MRwuZEPFQYssVH5JDm6" version="19.0.3" type="github" pages="3">
  <diagram id="ZlJ7M4qMxuyrwmrZaraY" name="components">
    <mxGraphModel dx="1422" dy="762" grid="1" gridSize="10" guides="1" tooltips="1" connect="1" arrows="1" fold="1" page="1" pageScale="1" pageWidth="850" pageHeight="1100" math="0" shadow="0">
      <root>
        <mxCell id="0" />
        <mxCell id="1" parent="0" />
        <mxCell id="s47naatWHpxSAN4C7c7a-1" value="k8s-elr" style="swimlane;startSize=0;labelPosition=left;verticalLabelPosition=bottom;align=right;verticalAlign=top;textDirection=rtl;" vertex="1" parent="1">
          <mxGeometry x="140" y="110" width="550" height="280" as="geometry" />
        </mxCell>
        <mxCell id="s47naatWHpxSAN4C7c7a-7" value="DEV: Shared SQL Server" style="sketch=0;pointerEvents=1;shadow=0;dashed=0;html=1;strokeColor=none;fillColor=#505050;labelPosition=center;verticalLabelPosition=bottom;verticalAlign=top;outlineConnect=0;align=center;shape=mxgraph.office.servers.sql_server;textDirection=ltr;" vertex="1" parent="1">
          <mxGeometry x="919" y="184" width="43" height="60" as="geometry" />
        </mxCell>
        <mxCell id="s47naatWHpxSAN4C7c7a-17" value="Test: Shared SQL Server" style="sketch=0;pointerEvents=1;shadow=0;dashed=0;html=1;strokeColor=none;fillColor=#505050;labelPosition=center;verticalLabelPosition=bottom;verticalAlign=top;outlineConnect=0;align=center;shape=mxgraph.office.servers.sql_server;textDirection=ltr;" vertex="1" parent="1">
          <mxGeometry x="919" y="334" width="43" height="60" as="geometry" />
        </mxCell>
        <mxCell id="s47naatWHpxSAN4C7c7a-18" value="UAT: Shared SQL Server" style="sketch=0;pointerEvents=1;shadow=0;dashed=0;html=1;strokeColor=none;fillColor=#505050;labelPosition=center;verticalLabelPosition=bottom;verticalAlign=top;outlineConnect=0;align=center;shape=mxgraph.office.servers.sql_server;" vertex="1" parent="1">
          <mxGeometry x="919" y="634" width="43" height="60" as="geometry" />
        </mxCell>
        <mxCell id="s47naatWHpxSAN4C7c7a-19" value="Stage: Shared SQL Server" style="sketch=0;pointerEvents=1;shadow=0;dashed=0;html=1;strokeColor=none;fillColor=#505050;labelPosition=center;verticalLabelPosition=bottom;verticalAlign=top;outlineConnect=0;align=center;shape=mxgraph.office.servers.sql_server;textDirection=ltr;" vertex="1" parent="1">
          <mxGeometry x="919" y="484" width="43" height="60" as="geometry" />
        </mxCell>
        <mxCell id="s47naatWHpxSAN4C7c7a-20" value="k8s-elr" style="swimlane;startSize=0;labelPosition=left;verticalLabelPosition=bottom;align=right;verticalAlign=top;textDirection=rtl;" vertex="1" parent="1">
          <mxGeometry x="140" y="510" width="550" height="280" as="geometry" />
        </mxCell>
        <mxCell id="s47naatWHpxSAN4C7c7a-21" value="&lt;ul&gt;&lt;li&gt;create namespaces&lt;/li&gt;&lt;li&gt;link pods with database&lt;/li&gt;&lt;li&gt;oauth server: outline absence of it&lt;/li&gt;&lt;li&gt;keyvault&lt;/li&gt;&lt;li&gt;external config: outline absence of it&lt;/li&gt;&lt;li&gt;load balancer, if it is part of k8s or outside of it&lt;/li&gt;&lt;li&gt;dns&lt;/li&gt;&lt;/ul&gt;" style="text;html=1;align=left;verticalAlign=middle;resizable=0;points=[];autosize=1;strokeColor=none;fillColor=none;" vertex="1" parent="1">
          <mxGeometry x="1140" y="95" width="300" height="130" as="geometry" />
        </mxCell>
      </root>
    </mxGraphModel>
  </diagram>
  <diagram id="giY2xGMxeTLkRdcsa_Nd" name="network">
    <mxGraphModel dx="1422" dy="762" grid="1" gridSize="10" guides="1" tooltips="1" connect="1" arrows="1" fold="1" page="1" pageScale="1" pageWidth="850" pageHeight="1100" math="0" shadow="0">
      <root>
        <mxCell id="0" />
        <mxCell id="1" parent="0" />
      </root>
    </mxGraphModel>
  </diagram>
  <diagram id="HNEQ3wnGX1ou2sEw6oN6" name="ci/cd">
    <mxGraphModel dx="1422" dy="762" grid="1" gridSize="10" guides="1" tooltips="1" connect="1" arrows="1" fold="1" page="1" pageScale="1" pageWidth="850" pageHeight="1100" math="0" shadow="0">
      <root>
        <mxCell id="0" />
        <mxCell id="1" parent="0" />
      </root>
    </mxGraphModel>
  </diagram>
</mxfile>
